<?xml version="1.0" standalone="no"?>
<!DOCTYPE svg PUBLIC "-//W3C//DTD SVG 20010904//EN"
 "http://www.w3.org/TR/2001/REC-SVG-20010904/DTD/svg10.dtd">
<svg version="1.0" xmlns="http://www.w3.org/2000/svg"
 width="1200.000000pt" height="1200.000000pt" viewBox="0 0 1200.000000 1200.000000"
 preserveAspectRatio="xMidYMid meet">

<g transform="translate(0.000000,1200.000000) scale(0.100000,-0.100000)"
fill="#000000" stroke="none">
<path d="M5650 10490 c-290 -27 -518 -66 -765 -130 -697 -180 -1338 -525
-1887 -1014 -114 -101 -140 -147 -146 -249 -8 -124 56 -222 172 -266 55 -21
70 -21 620 -21 561 0 634 4 701 36 62 29 99 80 244 330 278 482 353 609 361
617 20 22 360 93 581 123 63 8 229 17 369 21 272 6 433 -3 675 -38 142 -20
447 -84 475 -99 8 -5 127 -202 263 -439 137 -236 265 -446 283 -465 80 -82
118 -87 703 -86 l466 1 68 -73 c482 -516 799 -1067 960 -1674 l25 -90 -36 -60
c-19 -32 -80 -138 -137 -234 -56 -96 -150 -257 -209 -358 -59 -101 -114 -199
-122 -217 -18 -43 -18 -166 -1 -208 8 -18 63 -115 122 -217 60 -102 147 -252
195 -335 48 -82 110 -188 138 -234 l50 -85 -20 -70 c-105 -383 -282 -777 -500
-1107 -140 -215 -231 -331 -411 -526 l-122 -133 -475 0 c-283 0 -501 -4 -540
-11 -77 -12 -146 -53 -183 -107 -14 -20 -132 -219 -262 -442 -130 -223 -240
-409 -245 -414 -21 -21 -404 -101 -600 -125 -262 -32 -666 -33 -915 -1 -261
33 -591 107 -612 137 -7 9 -121 202 -253 427 -132 226 -250 423 -263 437 -42
49 -98 78 -176 89 -44 6 -265 10 -540 10 l-466 -1 -63 68 c-465 503 -740 969
-941 1597 l-51 160 21 35 c155 261 467 807 481 844 21 56 23 136 4 199 -18 62
-552 983 -599 1034 -79 87 -214 112 -321 60 -97 -48 -135 -111 -171 -284 -66
-322 -90 -567 -89 -922 0 -402 36 -698 130 -1070 137 -547 345 -1000 695
-1510 116 -169 308 -398 484 -575 983 -992 2365 -1464 3762 -1285 993 128
1893 570 2603 1280 705 704 1153 1616 1280 2603 128 999 -77 1994 -588 2862
-379 644 -975 1233 -1627 1610 -542 314 -1115 503 -1755 581 -157 19 -691 28
-840 14z"/>
<path d="M5235 7376 c-27 -13 -64 -39 -81 -57 -17 -19 -118 -185 -224 -369
-106 -184 -243 -423 -305 -530 -204 -355 -190 -323 -190 -420 0 -97 -14 -66
185 -410 58 -102 196 -340 305 -530 108 -190 212 -360 229 -379 17 -18 54 -44
81 -57 l50 -24 715 0 715 0 52 24 c74 35 118 86 207 242 44 77 128 222 186
324 59 102 171 296 249 432 79 136 149 269 158 295 21 68 12 153 -24 222 -80
155 -660 1151 -687 1180 -17 18 -53 44 -81 57 l-50 24 -720 0 -720 0 -50 -24z"/>
</g>
</svg>
